<svg width="113" height="113" viewBox="0 0 113 113" fill="none" xmlns="http://www.w3.org/2000/svg">
<circle cx="56.5" cy="56.5" r="56.5" fill="url(#paint0_linear_1_22970)" fill-opacity="0.1"/>
<path d="M56.5 0C68.4316 1.42283e-07 80.057 3.77731 89.7099 10.7905C99.3628 17.8038 106.548 27.6929 110.235 39.0405L56.5 56.5V0Z" fill="url(#paint1_linear_1_22970)"/>
<path d="M110.235 39.0405C113.455 48.9504 113.871 59.5577 111.439 69.6897C109.006 79.8216 103.819 89.0836 96.4515 96.4515C89.0836 103.819 79.8216 109.006 69.6897 111.439C59.5577 113.871 48.9504 113.455 39.0406 110.235L56.5 56.5L110.235 39.0405Z" fill="url(#paint2_linear_1_22970)" fill-opacity="0.5"/>
<path d="M39.0405 110.235C27.6929 106.548 17.8038 99.3628 10.7905 89.7099L56.5 56.5L39.0405 110.235Z" fill="url(#paint3_linear_1_22970)" fill-opacity="0.4"/>
<path d="M10.7905 89.7099C2.34371 78.0838 -1.3556 63.676 0.44552 49.4187L56.5 56.5L10.7905 89.7099Z" fill="url(#paint4_linear_1_22970)" fill-opacity="0.3"/>
<path d="M0.421143 49.6144C1.72777 38.9728 6.03528 28.9226 12.8406 20.6377C19.6458 12.3528 28.6679 6.17528 38.8531 2.82658L56.5 56.5L0.421143 49.6144Z" fill="url(#paint5_linear_1_22970)" fill-opacity="0.2"/>
<path d="M38.5723 2.91971C44.4772 0.943972 50.668 -0.042096 56.8945 0.00137708L56.5 56.5L38.5723 2.91971Z" fill="url(#paint6_linear_1_22970)" fill-opacity="0.1"/>
<defs>
<linearGradient id="paint0_linear_1_22970" x1="5.74576" y1="28.25" x2="133.178" y2="39.5894" gradientUnits="userSpaceOnUse">
<stop stop-color="#9F2DFE"/>
<stop offset="1" stop-color="#3BB2F9"/>
</linearGradient>
<linearGradient id="paint1_linear_1_22970" x1="5.74576" y1="28.25" x2="133.178" y2="39.5894" gradientUnits="userSpaceOnUse">
<stop stop-color="#9F2DFE"/>
<stop offset="1" stop-color="#3BB2F9"/>
</linearGradient>
<linearGradient id="paint2_linear_1_22970" x1="5.74576" y1="28.25" x2="133.178" y2="39.5894" gradientUnits="userSpaceOnUse">
<stop stop-color="#9F2DFE"/>
<stop offset="1" stop-color="#3BB2F9"/>
</linearGradient>
<linearGradient id="paint3_linear_1_22970" x1="5.74576" y1="28.25" x2="133.178" y2="39.5894" gradientUnits="userSpaceOnUse">
<stop stop-color="#9F2DFE"/>
<stop offset="1" stop-color="#3BB2F9"/>
</linearGradient>
<linearGradient id="paint4_linear_1_22970" x1="5.74576" y1="28.25" x2="133.178" y2="39.5894" gradientUnits="userSpaceOnUse">
<stop stop-color="#9F2DFE"/>
<stop offset="1" stop-color="#3BB2F9"/>
</linearGradient>
<linearGradient id="paint5_linear_1_22970" x1="5.74576" y1="28.25" x2="133.178" y2="39.5894" gradientUnits="userSpaceOnUse">
<stop stop-color="#9F2DFE"/>
<stop offset="1" stop-color="#3BB2F9"/>
</linearGradient>
<linearGradient id="paint6_linear_1_22970" x1="5.74576" y1="28.25" x2="133.178" y2="39.5894" gradientUnits="userSpaceOnUse">
<stop stop-color="#9F2DFE"/>
<stop offset="1" stop-color="#3BB2F9"/>
</linearGradient>
</defs>
</svg>
