<svg width="17" height="17" viewBox="0 0 17 17" fill="none" xmlns="http://www.w3.org/2000/svg">
<path d="M15.4062 2.20867C15.4021 1.77183 15.2258 1.35424 14.9158 1.04645C14.6058 0.738664 14.1869 0.565481 13.7501 0.564453L3.24195 0.53125C2.80554 0.531336 2.38697 0.704467 2.078 1.01268C1.76904 1.3209 1.59489 1.73906 1.59375 2.17547V13.0156C1.59375 13.9221 2.33352 14.6094 3.24195 14.6094H12.2188L11.7871 13.1484L15.4062 16.4688V2.20867ZM10.7794 10.9507C10.7794 10.9507 10.4899 10.6057 10.2481 10.3092C11.302 10.0124 11.7041 9.36328 11.7041 9.36328C11.4147 9.55529 11.1045 9.71401 10.7794 9.83643C10.4041 9.99226 10.0133 10.1079 9.61363 10.1814C8.92498 10.3079 8.2188 10.3052 7.53113 10.1734C7.12663 10.0983 6.73073 9.98263 6.34943 9.82812C6.14772 9.75086 5.95158 9.65978 5.7624 9.55553C5.73816 9.53959 5.71426 9.53162 5.69002 9.51535C5.67375 9.50738 5.66578 9.49941 5.65682 9.49941C5.51205 9.41906 5.4317 9.36295 5.4317 9.36295C5.4317 9.36295 5.81752 9.9968 6.83885 10.3013C6.59746 10.6061 6.29996 10.959 6.29996 10.959C4.52326 10.9029 3.84791 9.74811 3.84791 9.74811C3.84791 7.18947 5.0057 5.11229 5.0057 5.11229C6.1635 4.25398 7.25688 4.27822 7.25688 4.27822L7.33723 4.37451C5.8899 4.78357 5.23082 5.41709 5.23082 5.41709C5.23082 5.41709 5.40746 5.3208 5.70496 5.1923C6.56525 4.81545 7.24891 4.71916 7.53113 4.68728C7.57618 4.67792 7.62195 4.67248 7.66793 4.67102C8.20669 4.60111 8.75187 4.59576 9.29189 4.65508C10.1398 4.75248 10.9613 5.01113 11.7121 5.41709C11.7121 5.41709 11.0769 4.81445 9.70992 4.40605L9.82248 4.27789C9.82248 4.27789 10.9238 4.25365 12.074 5.11328C12.074 5.11328 13.2318 7.19047 13.2318 9.7491C13.2318 9.7398 12.5561 10.8946 10.7794 10.9507Z" fill="white"/>
<path d="M7.04082 7.23828C6.58262 7.23828 6.2207 7.63141 6.2207 8.12049C6.2207 8.60957 6.59059 9.0027 7.04082 9.0027C7.49902 9.0027 7.86094 8.6099 7.86094 8.12049C7.86924 7.63041 7.49902 7.23828 7.04082 7.23828ZM9.97531 7.23828C9.51711 7.23828 9.1552 7.63141 9.1552 8.12049C9.1552 8.60957 9.52508 9.0027 9.97531 9.0027C10.4338 9.0027 10.7954 8.6099 10.7954 8.12049C10.7954 7.63107 10.4259 7.23828 9.97531 7.23828Z" fill="white"/>
</svg>
