<svg width="17" height="17" viewBox="0 0 17 17" fill="none" xmlns="http://www.w3.org/2000/svg">
<path d="M8.5 1.0625C4.3928 1.0625 1.0625 4.3928 1.0625 8.5C1.0625 12.6072 4.3928 15.9375 8.5 15.9375C12.6072 15.9375 15.9375 12.6072 15.9375 8.5C15.9375 4.3928 12.6072 1.0625 8.5 1.0625ZM10.7899 12.0377C10.7899 12.0377 10.6046 12.5018 10.0929 12.2791L8.1974 10.8256L7.0329 9.9144L7.038 9.8719C7.038 9.8719 10.438 6.8153 10.5774 6.6861L10.6709 6.528C10.6794 6.3699 10.4193 6.528 10.4193 6.528L5.9143 9.3891L4.0375 8.7567C4.0375 8.7567 3.7485 8.6547 3.7213 8.432C3.6941 8.2093 4.046 8.0886 4.046 8.0886L11.5056 5.1629C11.5056 5.1629 12.1193 4.8943 12.1193 5.3397L10.7899 12.0377Z" fill="white"/>
</svg>
