<svg width="32" height="33" viewBox="0 0 32 33" fill="none" xmlns="http://www.w3.org/2000/svg">
<path opacity="0.1" fill-rule="evenodd" clip-rule="evenodd" d="M0 16.2871C0 7.45055 7.16344 0.287109 16 0.287109C24.8366 0.287109 32 7.45055 32 16.2871C32 25.1237 24.8366 32.2871 16 32.2871C7.16344 32.2871 0 25.1237 0 16.2871Z" fill="white"/>
<path fill-rule="evenodd" clip-rule="evenodd" d="M22.6679 10.7866C23.4022 10.9881 23.9805 11.5819 24.1768 12.3359C24.5335 13.7024 24.5335 16.5537 24.5335 16.5537C24.5335 16.5537 24.5335 19.405 24.1768 20.7716C23.9805 21.5256 23.4022 22.1193 22.6679 22.321C21.3371 22.6871 16.0001 22.6871 16.0001 22.6871C16.0001 22.6871 10.6632 22.6871 9.3323 22.321C8.59795 22.1193 8.01962 21.5256 7.82335 20.7716C7.4668 19.405 7.4668 16.5537 7.4668 16.5537C7.4668 16.5537 7.4668 13.7024 7.82335 12.3359C8.01962 11.5819 8.59795 10.9881 9.3323 10.7866C10.6632 10.4204 16.0001 10.4204 16.0001 10.4204C16.0001 10.4204 21.3371 10.4204 22.6679 10.7866ZM14.4001 14.1537V19.487L18.6668 16.8205L14.4001 14.1537Z" fill="white"/>
</svg>
