<svg width="32" height="33" viewBox="0 0 32 33" fill="none" xmlns="http://www.w3.org/2000/svg">
<path opacity="0.1" fill-rule="evenodd" clip-rule="evenodd" d="M0 16.2871C0 7.45055 7.16344 0.287109 16 0.287109C24.8366 0.287109 32 7.45055 32 16.2871C32 25.1237 24.8366 32.2871 16 32.2871C7.16344 32.2871 0 25.1237 0 16.2871Z" fill="white"/>
<path fill-rule="evenodd" clip-rule="evenodd" d="M16.0007 7.75391C13.6832 7.75391 13.3923 7.76404 12.4821 7.80546C11.5736 7.84706 10.9535 7.99089 10.4109 8.20191C9.84969 8.41987 9.37359 8.71143 8.89928 9.18592C8.42461 9.66024 8.13305 10.1363 7.91438 10.6974C7.70282 11.2402 7.55882 11.8604 7.51793 12.7685C7.47722 13.6788 7.46655 13.9698 7.46655 16.2873C7.46655 18.6049 7.47686 18.8948 7.51811 19.8051C7.55989 20.7135 7.70371 21.3336 7.91456 21.8762C8.13269 22.4374 8.42425 22.9135 8.89875 23.3878C9.37288 23.8625 9.84898 24.1548 10.4099 24.3727C10.9528 24.5838 11.5731 24.7276 12.4814 24.7692C13.3916 24.8106 13.6823 24.8207 15.9996 24.8207C18.3173 24.8207 18.6073 24.8106 19.5175 24.7692C20.426 24.7276 21.0468 24.5838 21.5897 24.3727C22.1508 24.1548 22.6262 23.8625 23.1003 23.3878C23.575 22.9135 23.8665 22.4374 24.0852 21.8764C24.295 21.3336 24.439 20.7133 24.4817 19.8052C24.5226 18.895 24.5332 18.6049 24.5332 16.2873C24.5332 13.9698 24.5226 13.6789 24.4817 12.7687C24.439 11.8603 24.295 11.2402 24.0852 10.6976C23.8665 10.1363 23.575 9.66024 23.1003 9.18592C22.6256 8.71125 22.151 8.41969 21.5892 8.20191C21.0452 7.99089 20.4247 7.84706 19.5163 7.80546C18.606 7.76404 18.3163 7.75391 15.998 7.75391H16.0007ZM15.2351 9.29168C15.4623 9.29132 15.7158 9.29168 16.0006 9.29168C18.2791 9.29168 18.5491 9.29985 19.4489 9.34074C20.2809 9.37879 20.7324 9.51781 21.0332 9.63461C21.4315 9.78928 21.7154 9.97417 22.0139 10.2728C22.3125 10.5715 22.4974 10.856 22.6525 11.2542C22.7693 11.5546 22.9085 12.0062 22.9463 12.8382C22.9872 13.7378 22.9961 14.008 22.9961 16.2853C22.9961 18.5627 22.9872 18.8329 22.9463 19.7325C22.9083 20.5645 22.7693 21.0161 22.6525 21.3165C22.4978 21.7147 22.3125 21.9983 22.0139 22.2968C21.7152 22.5955 21.4316 22.7804 21.0332 22.935C20.7328 23.0524 20.2809 23.191 19.4489 23.2291C18.5493 23.27 18.2791 23.2788 16.0006 23.2788C13.722 23.2788 13.452 23.27 12.5524 23.2291C11.7204 23.1907 11.2689 23.0516 10.9679 22.9348C10.5697 22.7802 10.2852 22.5953 9.98654 22.2966C9.68787 21.9979 9.50298 21.7142 9.34796 21.3158C9.23116 21.0154 9.09196 20.5638 9.05409 19.7318C9.0132 18.8322 9.00502 18.562 9.00502 16.2832C9.00502 14.0044 9.0132 13.7356 9.05409 12.8361C9.09213 12.0041 9.23116 11.5525 9.34796 11.2517C9.50263 10.8535 9.68787 10.569 9.98654 10.2704C10.2852 9.97168 10.5697 9.78679 10.9679 9.63177C11.2687 9.51443 11.7204 9.37577 12.5524 9.33754C13.3396 9.30199 13.6447 9.29132 15.2351 9.28954V9.29168ZM20.5557 10.7086C19.9904 10.7086 19.5317 11.1667 19.5317 11.7322C19.5317 12.2976 19.9904 12.7562 20.5557 12.7562C21.1211 12.7562 21.5797 12.2976 21.5797 11.7322C21.5797 11.1669 21.1211 10.7086 20.5557 10.7086ZM16.0007 11.905C13.5806 11.905 11.6184 13.8672 11.6184 16.2873C11.6184 18.7074 13.5806 20.6687 16.0007 20.6687C18.4208 20.6687 20.3823 18.7074 20.3823 16.2873C20.3823 13.8672 18.4208 11.905 16.0007 11.905ZM16.0007 13.4428C17.5715 13.4428 18.8451 14.7163 18.8451 16.2873C18.8451 17.8582 17.5715 19.1318 16.0007 19.1318C14.4296 19.1318 13.1562 17.8582 13.1562 16.2873C13.1562 14.7163 14.4296 13.4428 16.0007 13.4428Z" fill="white"/>
</svg>
