<svg width="32" height="33" viewBox="0 0 32 33" fill="none" xmlns="http://www.w3.org/2000/svg">
<path opacity="0.1" fill-rule="evenodd" clip-rule="evenodd" d="M0 16.2871C0 7.45055 7.16344 0.287109 16 0.287109C24.8366 0.287109 32 7.45055 32 16.2871C32 25.1237 24.8366 32.2871 16 32.2871C7.16344 32.2871 0 25.1237 0 16.2871Z" fill="white"/>
<path fill-rule="evenodd" clip-rule="evenodd" d="M15.5208 13.2922L15.5544 13.8458L14.9948 13.7781C12.9579 13.5182 11.1784 12.6369 9.66756 11.1568L8.92891 10.4223L8.73865 10.9647C8.33575 12.1736 8.59316 13.4504 9.43253 14.3091C9.8802 14.7836 9.77948 14.8514 9.00725 14.569C8.73865 14.4786 8.50363 14.4108 8.48124 14.4447C8.4029 14.5238 8.6715 15.5519 8.88414 15.9587C9.17513 16.5236 9.76828 17.0773 10.4174 17.4049L10.9658 17.6648L10.3167 17.6761C9.68994 17.6761 9.66756 17.6874 9.73471 17.9247C9.95854 18.6591 10.8427 19.4387 11.8276 19.7777L12.5214 20.0149L11.9171 20.3765C11.0218 20.8962 9.96973 21.19 8.91772 21.2126C8.41409 21.2239 8 21.2691 8 21.303C8 21.416 9.36538 22.0487 10.16 22.2973C12.5438 23.0317 15.3753 22.7153 17.5017 21.4612C19.0126 20.5686 20.5235 18.7947 21.2286 17.0773C21.6091 16.1621 21.9896 14.4899 21.9896 13.6877C21.9896 13.1679 22.0232 13.1001 22.6499 12.4787C23.0192 12.1171 23.3662 11.7217 23.4333 11.6087C23.5452 11.394 23.534 11.394 22.9633 11.5861C22.012 11.9251 21.8777 11.8799 22.3477 11.3714C22.6947 11.0099 23.1088 10.3545 23.1088 10.1625C23.1088 10.1286 22.9409 10.1851 22.7506 10.2868C22.5492 10.3997 22.1015 10.5692 21.7658 10.6709L21.1614 10.863L20.613 10.4901C20.3108 10.2868 19.8856 10.0608 19.6617 9.99299C19.0909 9.83481 18.218 9.8574 17.7032 10.0382C16.3042 10.5466 15.4201 11.8573 15.5208 13.2922Z" fill="white"/>
</svg>
