<svg width="238" height="81" viewBox="0 0 238 81" fill="none" xmlns="http://www.w3.org/2000/svg">
<path fill-rule="evenodd" clip-rule="evenodd" d="M61.5037 1.00001L214 1C226.703 1 237 11.2975 237 24V56.7012C237 69.4037 226.703 79.7011 214 79.7011H61.5517V80.7011H214C227.255 80.7011 238 69.956 238 56.7012V24C238 10.7452 227.255 0 214 0H61.5518H60.5518C60.5518 5.11339 56.4066 9.25862 51.2932 9.25862C46.1798 9.25862 42.0345 5.11339 42.0345 0H41.0345H24C10.7452 0 0 10.7452 0 24V56.7011C0 69.956 10.7452 80.7011 24 80.7011H41.0345L42.0345 80.7012C42.0344 75.5878 46.1797 71.4425 51.2931 71.4425C56.4065 71.4425 60.5517 75.5878 60.5517 80.7012H61.5517C61.5517 75.0355 56.9587 70.4425 51.2931 70.4425C45.6358 70.4425 41.0481 75.0218 41.0345 80.6759V79.7011H24C11.2975 79.7011 1 69.4037 1 56.7011V24C1 11.2974 11.2975 1 24 1L40.9827 1.00001V9.05991e-06L41.0345 0C41.0345 5.66568 45.6275 10.2586 51.2932 10.2586C56.6215 10.2586 61.001 6.19641 61.5037 1.00001Z" fill="url(#paint0_linear_1_22900)"/>
<defs>
<linearGradient id="paint0_linear_1_22900" x1="12.1017" y1="20.1753" x2="265.195" y2="86.5933" gradientUnits="userSpaceOnUse">
<stop stop-color="#9F2DFE"/>
<stop offset="1" stop-color="#3BB2F9"/>
</linearGradient>
</defs>
</svg>
