<svg width="95" height="237" viewBox="0 0 95 237" fill="none" xmlns="http://www.w3.org/2000/svg">
<path d="M537.859 235.408C529.398 234.468 518.696 226.221 511.302 222.062C490.046 210.105 471.082 201.746 446.592 197.796C402.882 190.746 355.574 189.302 311.376 189.302C264.609 189.302 189.188 190.405 166.588 139.557C159.594 123.819 162.114 104.523 151.49 89.8115C136.73 69.3748 127.224 43.957 107.271 26.8545C90.6974 12.6483 69.4981 0.942299 50.6505 -12.106C40.6057 -19.0602 33.8565 -29.3466 23.4186 -36.3721C12.2646 -43.8796 4.84377 -47.5795 1.5791 -60.6382" stroke="url(#paint0_linear_4_54576)" stroke-width="3" stroke-linecap="round"/>
<defs>
<linearGradient id="paint0_linear_4_54576" x1="28.8476" y1="13.3734" x2="622.975" y2="109.141" gradientUnits="userSpaceOnUse">
<stop stop-color="#9F2DFE"/>
<stop offset="1" stop-color="#3BB2F9"/>
</linearGradient>
</defs>
</svg>
