<svg width="557" height="252" viewBox="0 0 557 252" fill="none" xmlns="http://www.w3.org/2000/svg">
<path d="M2 2C15.0623 27.0457 51.8008 47.1473 72.8767 69.114C97.0531 94.3123 122.659 114.708 155.342 134.951C179.45 149.884 218.101 177.627 254.246 177.627C288.769 177.627 317.681 155.87 352.072 156.289C371.977 156.532 391.639 158.653 411.495 159.39C418.415 159.646 425.366 158.234 428.877 162.855C433.061 168.36 436.246 174.474 438.04 180.545C443.088 197.627 445.571 212.91 462.294 226.869C477.835 239.84 508.214 249.848 533.171 249.848C537.6 249.848 542.931 250.369 547.185 249.483C549.548 248.991 555 246.733 555 248.206" stroke="url(#paint0_linear_1_22849)" stroke-width="3" stroke-linecap="round"/>
<defs>
<linearGradient id="paint0_linear_1_22849" x1="30.1186" y1="64" x2="634.878" y2="183.995" gradientUnits="userSpaceOnUse">
<stop stop-color="#9F2DFE"/>
<stop offset="1" stop-color="#3BB2F9"/>
</linearGradient>
</defs>
</svg>
