<svg width="540" height="300" viewBox="0 0 540 300" fill="none" xmlns="http://www.w3.org/2000/svg">
<path d="M537.859 298.408C529.398 297.468 518.696 289.221 511.302 285.062C490.046 273.105 471.082 264.746 446.592 260.796C402.882 253.746 355.574 252.302 311.376 252.302C264.609 252.302 189.188 253.405 166.588 202.557C159.594 186.819 162.114 167.523 151.49 152.811C136.73 132.375 127.224 106.957 107.271 89.8545C90.6974 75.6483 69.4981 63.9423 50.6505 50.894C40.6057 43.9398 33.8565 33.6534 23.4186 26.6279C12.2646 19.1204 4.84377 15.4205 1.5791 2.36182" stroke="url(#paint0_linear_1_22848)" stroke-width="3" stroke-linecap="round"/>
<defs>
<linearGradient id="paint0_linear_1_22848" x1="28.8476" y1="76.3734" x2="622.975" y2="172.141" gradientUnits="userSpaceOnUse">
<stop stop-color="#9F2DFE"/>
<stop offset="1" stop-color="#3BB2F9"/>
</linearGradient>
</defs>
</svg>
