<svg width="545" height="402" viewBox="0 0 545 402" fill="none" xmlns="http://www.w3.org/2000/svg">
<path d="M2.29102 400.247C13.1841 399.3 25.2884 396.573 35.3198 392.159C66.5205 378.43 98.0131 365.511 129.283 351.985C164.84 336.605 199.63 314.534 231.74 292.937C257.477 275.628 284.499 257.362 305.078 233.89C318.222 218.897 325.788 194.484 313.975 175.921C296.937 149.146 271.303 192.489 302.112 203.692C312.188 207.356 317.43 202.948 327.726 200.052C351.879 193.259 374.145 186.064 391.762 167.158C408.452 149.246 430.265 132.829 442.72 111.751C452.939 94.458 467.955 76.9756 480.333 61.0616C499.223 36.7746 516.608 15.6919 543.424 2.28381" stroke="url(#paint0_linear_1_22847)" stroke-width="3" stroke-linecap="round"/>
<defs>
<linearGradient id="paint0_linear_1_22847" x1="29.8063" y1="101.775" x2="636.012" y2="175.123" gradientUnits="userSpaceOnUse">
<stop stop-color="#9F2DFE"/>
<stop offset="1" stop-color="#3BB2F9"/>
</linearGradient>
</defs>
</svg>
