<svg width="560" height="335" viewBox="0 0 560 335" fill="none" xmlns="http://www.w3.org/2000/svg">
<path d="M558 2C494.194 8.17676 436.706 19.5082 378.062 42.2474C347.718 54.0134 318.511 61.1226 287.284 69.7729C259.142 77.5686 234.623 91.8467 215.525 111.292C203.848 123.182 203.485 133.256 198.664 147.723C195.906 155.998 201.94 159.957 209.724 165.418C218.897 171.853 239.944 169.055 247.223 161.255C259.492 148.105 239.391 143.56 227.664 143.56C216.395 143.56 209.382 146.475 199.743 150.962C175.552 162.221 153.466 177.825 131.491 191.903C112.352 204.163 88.4986 211.91 72.95 227.987C67.565 233.555 66.2402 239.314 62.6987 245.566C56.479 256.545 49.3059 266.154 46.2426 278.412C41.6131 296.936 30.9146 333 2 333" stroke="url(#paint0_linear_1_22914)" stroke-width="3" stroke-linecap="round"/>
<defs>
<linearGradient id="paint0_linear_1_22914" x1="30.2712" y1="84.75" x2="648.439" y2="177.148" gradientUnits="userSpaceOnUse">
<stop stop-color="#9F2DFE"/>
<stop offset="1" stop-color="#3BB2F9"/>
</linearGradient>
</defs>
</svg>
